<svg xmlns="http://www.w3.org/2000/svg" viewBox="0 0 1000 340" width="1000" height="340" role="img">
<defs><linearGradient id="g" x1="0" y1="0" x2="1" y2="1"><stop offset="0" stop-color="#2c7a7b"/><stop offset="1" stop-color="#006162"/></linearGradient><marker id="a" viewBox="0 0 10 10" refX="9" refY="5" markerWidth="6" markerHeight="6" orient="auto-start-reverse"><path d="M0 0 L10 5 L0 10 z" fill="#bec9c8"/></marker></defs>
<rect width="1000" height="340" rx="18" fill="#faf9f6" stroke="#bec9c8"/><text x="500" y="38" font-family="-apple-system,BlinkMacSystemFont,'Segoe UI',Roboto,'Helvetica Neue',Arial,sans-serif" font-size="17" font-weight="700" fill="#1a1c1a" text-anchor="middle" letter-spacing="0" opacity="1">Where the money sits</text><rect x="50" y="88" width="180" height="96" rx="14" fill="#ffffff" stroke="#bec9c8"/><g transform="translate(84 126) scale(1.4000) translate(-12 -12)"><path d="M12 2a7 7 0 0 0-7 7c0 5.25 7 13 7 13s7-7.75 7-13a7 7 0 0 0-7-7zm0 9.5A2.5 2.5 0 1 1 12 6.5a2.5 2.5 0 0 1 0 5z" fill="#2c7a7b"/></g><text x="112" y="124" font-family="-apple-system,BlinkMacSystemFont,'Segoe UI',Roboto,'Helvetica Neue',Arial,sans-serif" font-size="14" font-weight="700" fill="#1a1c1a" text-anchor="start" letter-spacing="0" opacity="1">Venue</text><text x="112" y="144" font-family="-apple-system,BlinkMacSystemFont,'Segoe UI',Roboto,'Helvetica Neue',Arial,sans-serif" font-size="11.5" font-weight="400" fill="#3f4949" text-anchor="start" letter-spacing="0" opacity="1">commits on match</text><rect x="410" y="76" width="180" height="120" rx="14" fill="#ffffff" stroke="#006162"/><g transform="translate(500 116) scale(1.8000) translate(-12 -12)"><path d="M18 8h-1V6a5 5 0 0 0-10 0v2H6a2 2 0 0 0-2 2v10a2 2 0 0 0 2 2h12a2 2 0 0 0 2-2V10a2 2 0 0 0-2-2zm-6 9a2 2 0 1 1 0-4 2 2 0 0 1 0 4zm3.1-9H8.9V6a3.1 3.1 0 0 1 6.2 0v2z" fill="#006162"/></g><text x="500" y="162" font-family="-apple-system,BlinkMacSystemFont,'Segoe UI',Roboto,'Helvetica Neue',Arial,sans-serif" font-size="14" font-weight="700" fill="#1a1c1a" text-anchor="middle" letter-spacing="0" opacity="1">Escrow hold</text><text x="500" y="181" font-family="-apple-system,BlinkMacSystemFont,'Segoe UI',Roboto,'Helvetica Neue',Arial,sans-serif" font-size="11" font-weight="400" fill="#3f4949" text-anchor="middle" letter-spacing="0" opacity="1">frozen while disputed</text><rect x="770" y="88" width="180" height="96" rx="14" fill="#ffffff" stroke="#bec9c8"/><circle cx="804" cy="126" r="13.72" fill="none" stroke="#994621" stroke-width="2.38"/><text x="804" y="131.88" text-anchor="middle" font-family="-apple-system,BlinkMacSystemFont,'Segoe UI',Roboto,'Helvetica Neue',Arial,sans-serif" font-size="17.36" font-weight="700" fill="#994621">₹</text><text x="832" y="124" font-family="-apple-system,BlinkMacSystemFont,'Segoe UI',Roboto,'Helvetica Neue',Arial,sans-serif" font-size="14" font-weight="700" fill="#1a1c1a" text-anchor="start" letter-spacing="0" opacity="1">Crew</text><text x="832" y="144" font-family="-apple-system,BlinkMacSystemFont,'Segoe UI',Roboto,'Helvetica Neue',Arial,sans-serif" font-size="11.5" font-weight="400" fill="#3f4949" text-anchor="start" letter-spacing="0" opacity="1">paid on approval</text><path d="M236 136 H402" stroke="#2c7a7b" stroke-width="2" marker-end="url(#a)"/><path d="M596 136 H762" stroke="#2c7a7b" stroke-width="2" marker-end="url(#a)"/><text x="319" y="126" font-family="-apple-system,BlinkMacSystemFont,'Segoe UI',Roboto,'Helvetica Neue',Arial,sans-serif" font-size="11.5" font-weight="400" fill="#3f4949" text-anchor="middle" letter-spacing="0" opacity="1">hold</text><text x="679" y="126" font-family="-apple-system,BlinkMacSystemFont,'Segoe UI',Roboto,'Helvetica Neue',Arial,sans-serif" font-size="11.5" font-weight="400" fill="#3f4949" text-anchor="middle" letter-spacing="0" opacity="1">release</text><path d="M500 200 V236" stroke="#fe9569" stroke-width="2" marker-end="url(#a)"/><rect x="404" y="240" width="192" height="40" rx="12" fill="#ffffff" stroke="#fe9569"/><text x="500" y="265" font-family="-apple-system,BlinkMacSystemFont,'Segoe UI',Roboto,'Helvetica Neue',Arial,sans-serif" font-size="12" font-weight="600" fill="#994621" text-anchor="middle" letter-spacing="0" opacity="1">Platform fee · default 10%</text><rect x="50" y="236" width="300" height="48" rx="12" fill="#d3ecec" fill-opacity="0.55"/><text x="66" y="258" font-family="ui-monospace,SFMono-Regular,Menlo,Consolas,monospace" font-size="12.5" font-weight="600" fill="#006162" text-anchor="start" letter-spacing="0" opacity="1">balance = SUM(ledger_entries)</text><text x="66" y="274" font-family="-apple-system,BlinkMacSystemFont,'Segoe UI',Roboto,'Helvetica Neue',Arial,sans-serif" font-size="10.5" font-weight="400" fill="#3f4949" text-anchor="start" letter-spacing="0" opacity="1">append-only — no mutable balance column</text>
</svg>
